<?xml version="1.0" encoding="utf-8"?>
<!-- Generator: Adobe Illustrator 26.2.1, SVG Export Plug-In . SVG Version: 6.00 Build 0)  -->
<svg version="1.1" xmlns="http://www.w3.org/2000/svg" xmlns:xlink="http://www.w3.org/1999/xlink" x="0px" y="0px"
	 viewBox="0 0 750 500" style="enable-background:new 0 0 750 500;" xml:space="preserve">
<style type="text/css">
	.st0{fill:#FFFFFF;}
	.st1{fill:#BDCAE0;}
	.st2{fill:#CDDCF4;}
	.st3{fill:#B0BDD1;}
	.st4{fill:#DBE9FF;}
	.st5{fill:#F6A397;}
	.st6{fill:#D65863;}
	.st7{fill:#5470D3;}
	.st8{fill:#314EC6;}
	.st9{fill:#504984;}
	.st10{fill:#372D5B;}
	.st11{fill:#BA6454;}
	.st12{fill:#874438;}
	.st13{fill:#3F1751;}
	.st14{fill:#BA5E5B;}
	.st15{fill:#FFA6A4;}
	.st16{fill:#E67471;}
	.st17{fill:#282142;}
	.st18{fill:#7F74D1;}
	.st19{fill:#8E5058;}
	.st20{fill:#64364A;}
	.st21{clip-path:url(#SVGID_00000034069804306973300450000004203980243295988136_);}
	.st22{fill:#FFC5C7;}
	.st23{fill:#DCEDFF;}
	.st24{fill:#FE8A8B;}
	.st25{fill:#0C0835;}
	.st26{fill:#252384;}
	.st27{fill:#57AFF7;}
	.st28{fill:#C31F2A;}
	.st29{fill:#FB8384;}
	.st30{fill:#D1C8D9;}
	.st31{font-family:'BebasKai';}
	.st32{font-size:20.4596px;}
</style>
<g id="BACKGROUND">
	<rect class="st0" width="750" height="500"/>
</g>
<g id="OBJECTS">
	<path class="st1" d="M671.69,370.72c-26.01,39.46-70.61,62.65-117.87,62.65H161.57c-78.84,0-123.05-92.18-71.92-144.09
		c51.13-51.91,5.97-96.24,84.84-137.86c76.41-40.33,102.49,45.63,172.88-10.61c70.39-56.24,172.87-50.94,195.38,6.37
		c22.52,57.31,17.21,77.47,64.96,90.2c47.75,12.73,94.45,84.89,65.79,130.53C672.91,368.85,672.3,369.79,671.69,370.72z"/>
	<g>
		<g>
			<path class="st2" d="M654.25,386.71c-41.32,3.51-69.18,80.96-172.48,34.41c0,0,11.34-33.81,62.16-54.89
				C594.74,345.15,654.25,386.71,654.25,386.71z"/>
			<path class="st3" d="M495.88,415.32c10.78-5.61,21.97-10.44,33.39-14.65c2.84-1.09,5.72-2.07,8.62-3.03
				c2.88-1,5.79-1.88,8.71-2.78c2.9-0.93,5.85-1.7,8.8-2.49c1.47-0.39,2.94-0.81,4.42-1.18l4.45-1.07l4.46-1.02l4.49-0.88l4.49-0.88
				c1.5-0.29,3.01-0.51,4.52-0.74c3.02-0.44,6.03-0.95,9.07-1.24c3.04-0.32,6.06-0.75,9.12-0.87c12.17-0.88,24.47-0.68,36.47,1.35
				c-12.15-0.29-24.21,0.42-36.16,1.9l-2.24,0.25l-2.23,0.34l-4.47,0.65c-2.98,0.38-5.94,0.98-8.9,1.52
				c-1.48,0.29-2.97,0.5-4.44,0.8l-4.42,0.92l-4.42,0.92l-4.39,1.05l-4.4,1.01c-1.46,0.35-2.92,0.75-4.38,1.12l-4.38,1.13
				c-1.46,0.37-2.9,0.82-4.36,1.21c-2.91,0.8-5.82,1.58-8.7,2.47c-2.89,0.88-5.79,1.7-8.67,2.62
				C518.78,407.34,507.35,411.3,495.88,415.32z"/>
		</g>
		<g>
			<path class="st4" d="M659.31,254.9c-50.42,36.04-27.1,156.82-195.35,175.84c0,0-11.23-52.1,37.97-117.96
				C551.13,246.92,659.31,254.9,659.31,254.9z"/>
			<path class="st2" d="M475.15,416.19c7.34-15.9,16.4-31.02,26.59-45.33c10.16-14.34,21.55-27.84,33.96-40.34
				c12.42-12.48,25.88-23.98,40.45-33.91c14.52-9.93,30.19-18.47,46.9-23.8c-15.51,8.13-29.88,17.8-43.53,28.4
				c-13.6,10.66-26.46,22.22-38.64,34.47c-12.19,12.24-23.68,25.18-34.61,38.62C495.36,387.77,485.12,401.79,475.15,416.19z"/>
		</g>
		<g>
			<path class="st2" d="M115.41,375.95c40.97,6.41,63.3,85.63,169.63,46.47c0,0-8.93-34.53-58.14-59.13
				C177.7,338.68,115.41,375.95,115.41,375.95z"/>
			<path class="st3" d="M271.37,415.64c-11.16-4.82-22.29-9.57-33.54-13.97c-2.8-1.12-5.64-2.15-8.46-3.23
				c-2.81-1.1-5.66-2.08-8.51-3.08c-1.43-0.48-2.83-1.04-4.26-1.51l-4.29-1.44c-1.43-0.47-2.85-0.97-4.29-1.42l-4.32-1.31
				l-4.31-1.36l-4.35-1.23l-4.35-1.23c-1.45-0.41-2.92-0.72-4.37-1.11c-2.92-0.74-5.82-1.55-8.77-2.14l-4.41-0.97l-2.2-0.5
				l-2.22-0.41c-11.82-2.31-23.79-3.88-35.93-4.44c12.11-1.18,24.4-0.51,36.48,1.22c3.04,0.33,6.03,0.98,9.03,1.51
				c3.02,0.5,5.98,1.22,8.96,1.88c1.49,0.34,2.98,0.66,4.46,1.06l4.42,1.2l4.42,1.2l4.38,1.33l4.36,1.38
				c1.45,0.47,2.88,0.99,4.32,1.49c2.88,1,5.77,1.97,8.6,3.11c2.84,1.1,5.69,2.19,8.49,3.39c2.82,1.16,5.62,2.34,8.38,3.63
				C250.19,403.67,261.01,409.28,271.37,415.64z"/>
		</g>
		<g>
			<path class="st4" d="M142.65,249.35c45.4,37.55,15.2,150.53,173.49,179.83c0,0,14.14-48.66-28.11-114.41
				C245.77,249.03,142.65,249.35,142.65,249.35z"/>
			<path class="st2" d="M306.49,414.64c-8.56-14.29-17.36-28.25-26.82-41.74c-9.49-13.45-19.52-26.48-30.26-38.9
				c-10.73-12.42-22.13-24.25-34.29-35.28c-12.21-10.98-25.16-21.14-39.29-29.95c15.52,6.1,29.84,15.23,42.97,25.6
				c13.18,10.38,25.19,22.19,36.14,34.86c10.94,12.69,20.83,26.27,29.49,40.57C293.12,384.06,300.67,399.04,306.49,414.64z"/>
		</g>
	</g>
	<g>
		<g>
			<path class="st5" d="M409.65,354.53c-5.68,6.75-10.83,17.94-14.03,19.72c-3.2,1.78-8.59,2.39-13.68,18.79
				c-5.09,16.4,20.62,14.15,20.62,14.15s11-6.32,15.44-21.58l11.01-9.77L409.65,354.53z"/>
			<path class="st6" d="M389.75,405.39c0,0,8.32-2.71,15.38-10.17c7.09-7.49,8-20.8,8-20.8l3.39,6.34l6.79-7.26l3.27-0.32l2.41,2.66
				L418,385.61c-4.44,15.26-15.44,21.58-15.44,21.58s-7.09,0.61-13.09-1.17C389.63,405.63,389.75,405.39,389.75,405.39z"/>
			<path class="st7" d="M448.21,295.8c-7.88,5.76-12.58,9.94-16.5,17.77c-3.92,7.83-28.46,35.98-30.03,38.49
				c-1.57,2.51,13.8,29.15,26.09,35.67c0,0,18.56-21.41,29.27-29.51c10.71-8.1,7.05-36.82,2.09-46.48
				C454.17,302.08,448.21,295.8,448.21,295.8z"/>
			<path class="st8" d="M447.92,347.63v-15.99c0,0,2.08-0.83,3.71,4.56c0.65,2.16,0.6,4.43,0.31,6.38l11.95-8.99
				c0.49,10.06-1.12,20.3-6.85,24.63c-10.71,8.1-29.27,29.51-29.27,29.51c-3.17-1.68-6.55-4.71-9.78-8.31
				C425.55,371.9,439.89,357.37,447.92,347.63z"/>
			<path class="st5" d="M371.55,400.87c-2.04,0.64-3.55,1.61-3.55,4.19c0,2.58,0.44,6.66,1.42,8.26c0.98,1.6,6.02,2.56,6.02,2.56
				s-0.34-10.64-1.4-12.59C372.97,401.33,371.55,400.87,371.55,400.87z"/>
			<path class="st6" d="M369.42,413.32c-0.27-0.45-0.5-1.11-0.7-1.86c1.09,1.08,1.46,1.08,2.8,1.23l3.83,1.19
				c0.06,1.2,0.08,2,0.08,2S370.4,414.92,369.42,413.32z"/>
			<path class="st5" d="M376.44,396.98c-2.49,0.27-4.97,2.13-4.97,4.71s-0.89,9.77,0,10.92c0.89,1.15,5.24,4.44,6.75,4.71
				c1.51,0.27,4.07-0.18,3.72-0.98C381.59,415.54,376.44,396.98,376.44,396.98z"/>
			<path class="st6" d="M371.08,410.68c1.89,2.13,6.71,1.94,6.71,1.94s2.12,2.26,2.38,2.99c0.16,0.44,1.03,1.02,1.14,1.46
				c-0.8,0.3-2.16,0.42-3.1,0.25c-1.48-0.26-5.68-3.42-6.68-4.63L371.08,410.68C371.08,410.68,371.08,410.68,371.08,410.68z"/>
			<path class="st5" d="M385.75,392.73c-7.63,0.43-9.05,1.14-9.32,4.25c-0.27,3.11-0.09,12.17,0.89,14.48
				c0.98,2.31,1.51,4.35,2.75,5.6c1.24,1.24,3.1,1.25,3.1,1.25s4.18-6.13,4.36-11.28C387.71,401.87,385.75,392.73,385.75,392.73z"/>
			<path class="st6" d="M381.36,413.2c0.39-2.11,1.25-4.36,1.35-11.42c0.04-2.65,2.5,11.2,1.4,15c-0.55,0.94-0.94,1.52-0.94,1.52
				s-1.86,0-3.1-1.25c-1.24-1.24-1.78-3.29-2.75-5.6c-0.06-0.15-0.12-0.33-0.18-0.54C377.64,412.22,379.22,413.07,381.36,413.2z"/>
			<path class="st5" d="M402.46,408.35c-0.48,4.24-6.04,5.77-6.66,7.9c-0.62,2.13-0.18,4.09-1.24,4.62
				c-1.07,0.53-5.51-1.95-5.33-4.8c0,0-1.15,2.4-3.73,2.84c-2.58,0.44-3.2-1.44-2.75-4.27c0.44-2.83,0.36-4.34,0.27-7.72
				c-0.09-3.37-0.89-6.48,0.62-10.21c1.51-3.73,3.55-7.02,7.64-6.39c4.09,0.62,6.57,5.77,8.79,7.55
				C402.28,399.65,402.99,403.64,402.46,408.35z"/>
			<path class="st6" d="M389.22,416.08c0.25-5.4,0.53-9.81,0.53-10.68c0-0.87-0.28-6.6,1.75-6.95c0.31-0.05,4.79,2.79,4.87,4.7
				c0.09,1.92,0,5.35-1.39,6.33C393.6,410.46,389.22,416.08,389.22,416.08z"/>
		</g>
		<g>
			<path class="st7" d="M574.3,307.31c-8.1-10.27-10.88-11.32-19.24-16.19c-8.36-4.87-40.04-17.24-46.57-18.8
				c-6.53-1.57-32.86,10.71-41.5,14.62c-8.64,3.92-19.63,7.77-21.51,11.59c-6.27,12.78,6.15,30.89,6.21,68.84
				c0.03,19.88,4.56,64.58,4.56,64.58s99.49,0.19,100.89-1.9c1.39-2.09,4.87-73.47,6.62-88.09
				C565.5,327.33,574.3,307.31,574.3,307.31z"/>
			<g>
				<path class="st8" d="M445.85,318.54c-0.75-2.4-1.19-4.85-1.56-7.31c-0.34-2.46-0.61-4.93-0.57-7.45
					c0.75,2.4,1.19,4.85,1.56,7.31C445.61,313.55,445.88,316.02,445.85,318.54z"/>
			</g>
			<path class="st8" d="M483.05,303.59c-3.84-1.44-12.95,1.06-14.62,1.64c-1.66,0.58,0.98-6.54,1.96-7.42
				c0.98-0.88,2.55-2.93,5.55-2.01c3,0.93,5.53,4.37,5.96,5.5C482.34,302.43,483.05,303.59,483.05,303.59z"/>
			<path class="st8" d="M515.08,309.53c-1.37-0.07-9.37-3.74-11.28-4.66s-10.59-1.34-16.42,0.29c0,0,11.21-7.58,17.74-7.51
				c6.53,0.07,9.01,2.42,9.53,4.5C515.18,304.24,515.08,309.53,515.08,309.53z"/>
			<path class="st8" d="M472.31,415.94c1.07-1.04,66.05,1.04,67.35-5.75c1.31-6.79,2.2-19.14,2.2-19.14
				c-7.82,4.18-19.18,2.44-19.18,2.44c7.57-2.47,18.54-14.9,19.06-18.55c1.61-11.26-4.41-42.31-4.41-42.31l4.41-8.87l5.16-2.87
				c0,0,9.78,4.87,18.14,13.83c-0.56,2.48-1.02,4.92-1.29,7.23c-1.64,13.79-4.83,78.01-6.36,87.07
				c-20.13,0.74-56.61,2.08-81.02,2.92c-11.83,0.03-20.13,0.01-20.13,0.01s-0.15-5.88-0.51-14.31
				C462.56,417.24,471.65,416.59,472.31,415.94z"/>
			<path class="st7" d="M485.51,305.48c7.01-0.85,18.28-6.92,22.72-4.83c4.44,2.09,5.48,7.44,6.4,8.36s4.83-3.66,4.83-14.89
				c0-11.23,0.34-22.73-7.92-24.29c-8.27-1.56-29.68,6.53-33.99,9.8c-4.31,3.26-6.14,6.57-7.31,9.75
				c-1.18,3.18-4.31,15.97-2.87,16.1c1.44,0.13,5.48-8.23,8.49-8.49C478.85,296.73,483.61,305.71,485.51,305.48z"/>
			<path class="st8" d="M481.52,295.42c-1.79-4.24-3.75-7.96-3.68-10.9c0.07-2.94,0.72-4.96,3.98-5.88
				c3.26-0.91,4.64,0.85,4.83,5.29C486.85,288.37,481.52,295.42,481.52,295.42z"/>
			<path class="st8" d="M507.12,287.51c6.83-6.19,7.6-13.11,6.96-14.55c-0.64-1.44-3.46-2.48-3.46-2.48s-1.11,4.5-0.46,5.61
				C510.81,277.21,507.12,287.51,507.12,287.51z"/>
			<g>
				<path class="st8" d="M496.25,302.48c1.66-0.75,3.4-1.33,5.17-1.81c1.78-0.43,3.61-0.78,5.5-0.65c0.94,0.07,1.94,0.27,2.78,0.94
					c0.74,0.7,1.3,1.33,1.93,2.04c1.24,1.41,2.1,3.13,2.89,4.74c0.18,0.37,0.45,0.81,0.57,0.85c0.01,0.01,0.01,0.03,0.15-0.06
					c0.12-0.08,0.26-0.22,0.38-0.38c0.51-0.65,0.93-1.46,1.33-2.26c0.82-1.56,1.26-3.29,1.61-5.06c0.34-1.77,0.54-3.57,0.66-5.37
					c0.16-1.81,0.21-3.62,0.23-5.44c0.36,3.63,0.36,7.3-0.14,10.95c-0.24,1.82-0.7,3.66-1.52,5.35c-0.41,0.83-0.82,1.65-1.42,2.45
					c-0.16,0.2-0.33,0.4-0.58,0.58c-0.12,0.09-0.29,0.18-0.49,0.22c-0.21,0.05-0.46,0.02-0.64-0.07c-0.37-0.19-0.53-0.44-0.68-0.65
					c-0.15-0.22-0.26-0.43-0.37-0.64c-0.79-1.65-1.57-3.23-2.72-4.58c-0.55-0.67-1.19-1.41-1.76-1.97c-0.59-0.49-1.44-0.74-2.3-0.85
					c-1.74-0.21-3.55,0.04-5.32,0.37C499.74,301.46,497.99,301.95,496.25,302.48z"/>
			</g>
			<g>
				<path class="st8" d="M480.17,300.14c-0.76-0.67-1.51-1.34-2.33-1.89c-0.41-0.28-0.82-0.54-1.25-0.73
					c-0.22-0.08-0.42-0.15-0.62-0.17c-0.09,0.01-0.18,0-0.25,0.02c-0.06,0.04-0.1,0.03-0.22,0.12c-1.68,1.04-2.99,2.46-4.11,4.1
					c-0.57,0.79-1.06,1.69-1.73,2.51c-0.33,0.4-0.69,0.8-1.14,1.15c-0.24,0.16-0.47,0.35-0.89,0.4c-0.2,0.03-0.48-0.05-0.65-0.21
					c-0.17-0.16-0.26-0.33-0.31-0.48c-0.18-0.62-0.12-1.13-0.08-1.66c0.07-0.52,0.16-1.02,0.27-1.52c0.25-0.99,0.53-1.96,0.88-2.91
					c-0.14,1-0.32,1.99-0.4,2.99c-0.06,0.5-0.09,0.99-0.1,1.48c0,0.47,0.01,0.99,0.15,1.33c0.03,0.09,0.08,0.13,0.1,0.14
					c0.02,0,0,0.01,0.05-0.01c0.08-0.01,0.28-0.12,0.44-0.26c0.33-0.28,0.65-0.65,0.93-1.04c0.59-0.76,1.06-1.63,1.65-2.49
					c0.59-0.84,1.24-1.65,2-2.38c0.75-0.72,1.63-1.34,2.53-1.82c0.08-0.06,0.29-0.13,0.46-0.18c0.17-0.03,0.34-0.01,0.5-0.01
					c0.3,0.06,0.57,0.17,0.81,0.3c0.47,0.27,0.88,0.59,1.27,0.93C478.89,298.57,479.58,299.31,480.17,300.14z"/>
			</g>
			<path class="st5" d="M480.56,269.92c0.02,2.76,0.13,5.51,0.41,8.25c0.7,6.73,0.01,15.61,0.55,17.25
				c0.59,1.83,4.12,8.36,4.12,8.36s6.27-2.87,8.88-6.01s6.01-3.29,10.58-7.91c4.57-4.62,7.68-11.96,6.66-18.07
				c-0.13-0.78-0.93-8.6-1.11-16.7c-0.18-8.1-8.68-14.25-16.78-14.25c-8.1,0-12.94,12.01-13.2,20.11
				C480.57,264.28,480.55,267.4,480.56,269.92z"/>
			<path class="st6" d="M510.64,255.09c0.18,8.1,0.98,15.92,1.11,16.7c0.31,1.89,0.23,3.89-0.16,5.9
				c-1.79,0.33-24.85,0.89-30.82-1.89c-0.14-1.96-0.2-3.92-0.21-5.88c-0.01-2.52,0-5.64,0.11-8.96c0.11-3.43,1.04-7.57,2.7-11.19
				l18.97-6.72C506.99,245.52,510.53,249.9,510.64,255.09z"/>
		</g>
		<g>
			<path class="st9" d="M466.36,221.38c-12.25,0-16.83,9.41-16.83,16.46c0,6.33,2.03,16.46,16.83,16.46
				c7.4,0,12.41-7.37,12.41-16.46C478.77,228.75,473.76,221.38,466.36,221.38z"/>
			<path class="st10" d="M465.82,225.41c-9.25,0-12.71,7.11-12.71,12.43c0,4.78,1.53,12.43,12.71,12.43c5.59,0,9.37-5.57,9.37-12.43
				C475.19,230.98,471.41,225.41,465.82,225.41z"/>
			<path class="st5" d="M450.9,226.94c0.72,4.29,2.85,5.93,3.8,11.72c0.95,5.79-1.58,14.19,2.19,21.52
				c3.77,7.32,9.88,16.95,13.4,17.36c3.53,0.41,31.77-4.36,41.3-23.31c2.73-5.44,8.58-26.77,3.58-39.79
				c-5-13.02-13.14-24.96-31.94-25.32C464.42,188.75,447.07,204.19,450.9,226.94z"/>
			<path class="st6" d="M466.63,250.4c1,0.02,2.11-0.36,2.6-1.02c0.43-0.58,0.61-1.34,0.49-2.05c-1.47,1.21-3.27,1.42-5.08,1.1
				C464.42,249.79,465.46,250.37,466.63,250.4z"/>
			<path class="st11" d="M499.9,226.94c-0.72-4.46-3.7-7.04-3.7-7.04s-7.19-2.98-12.75-3.53c-5.56-0.54-11.26-2.17-11.26-2.17
				s1.76,4.46,4.75,6.37c0,0-13.29-0.67-17.49-4.61c0,0,0.81,3.24,1.63,5.42c0,0-6.51-0.67-8.54-3.25c0,0-1.63,5.67-1.63,8.8
				c0,0-7.82-10.7-5.83-19.2c1.99-8.5,4.7-11.75,4.7-11.75s-5.61,0.54-8.68,0c0,0,7.23-6.33,12.66-10.49
				c5.42-4.16,21.7-4.34,21.7-4.34s-1.27-4.34,0.18-11.21c0,0,6.96,10.22,14.33,13.34s6.38,2.85,14.19,4.83
				c7.81,1.97,15.24,6.97,18.36,11.18c3.12,4.2,6.51,8.54,8.54,9.22c0,0-4.88-0.68-7.32-2.71c0,0,4.07,9.25-1.31,21.15
				c-5.38,11.9-18.86,8.38-21.47,5.75C498.33,230.06,499.9,226.94,499.9,226.94z"/>
			<path class="st12" d="M500.95,232.69c-2.61-2.63-1.05-5.75-1.05-5.75c-0.43-2.7-1.69-4.71-2.62-5.87
				c1.96-11.86,1.16-24.17-2.32-35.68c2.03,0.82,3.24,1.19,6.17,1.95c3.61,5.43,6.31,11.53,8.16,17.72
				c2.37,7.88,3.51,16.38,1.3,24.31c-0.57,2.03-1.39,4.01-2.43,5.87C504.82,234.95,502,233.75,500.95,232.69z"/>
			<path class="st9" d="M504.63,222.52c0,0,0.93-29.74-14.67-39.24c0,0,12.07-1.36,18.99,10.71c6.92,12.07,6.45,22.42,6.27,28.22
				C515.05,228.02,504.63,222.52,504.63,222.52z"/>
			<path class="st9" d="M509.38,221.38c12.25,0,16.83,9.41,16.83,16.46c0,6.33-2.03,16.46-16.83,16.46
				c-7.4,0-12.41-7.37-12.41-16.46C496.97,228.75,501.98,221.38,509.38,221.38z"/>
			<path class="st10" d="M502.78,237.85c0-8.07,5.33-14.61,11.9-14.61c6.57,0,11.54,6.54,11.54,14.61c0,8.07-4.97,14.61-11.54,14.61
				C508.11,252.46,502.78,245.92,502.78,237.85z"/>
			<ellipse class="st9" cx="516.25" cy="237.85" rx="8.1" ry="9.95"/>
			<g>
				<path class="st6" d="M478.33,254.31c-3.31,1.82-14.12,2.43-14.86,2.33c-0.74-0.1,0.77,8.11,3.42,8.41
					c2.65,0.3,7.94-0.4,10.15-2.53C479.26,260.39,478.33,254.31,478.33,254.31z"/>
				<path class="st0" d="M477.64,256.7c-0.2-0.73-0.36-1.31-0.52-1.88c-3.64,1.24-10.81,1.77-13.02,1.82c0.18,1.1,0.5,2.21,0.94,3.3
					c0.07-0.05-0.02,0.11,0.05,0.06C469.87,260.75,474.73,259.21,477.64,256.7z"/>
			</g>
			<path class="st13" d="M476.87,234.68c0-1.5,0.74-2.71,1.65-2.71c0.91,0,1.65,1.21,1.65,2.71c0,1.5-0.74,2.71-1.65,2.71
				C477.61,237.39,476.87,236.18,476.87,234.68z"/>
			<path class="st13" d="M457.99,235.95c0-1.5,0.64-2.71,1.42-2.71c0.78,0,1.42,1.21,1.42,2.71s-0.64,2.71-1.42,2.71
				C458.63,238.66,457.99,237.44,457.99,235.95z"/>
			<path class="st13" d="M486.11,224.11c-1.13-0.62-2.34-1.05-3.59-1.41c-1.25-0.34-2.55-0.53-3.87-0.58
				c-1.31-0.07-2.69-0.1-3.96,0.39c-1.27,0.44-2.42,1.24-3.27,2.29l0.1,0.16c1.36-0.15,2.49-0.48,3.68-0.64
				c1.16-0.17,2.29-0.6,3.5-0.7c2.4-0.2,4.92-0.01,7.34,0.65L486.11,224.11z"/>
			<path class="st13" d="M453.22,227.61c0.59-0.23,1.21-0.37,1.82-0.44c0.61-0.08,1.23-0.11,1.84-0.12
				c0.61-0.01,1.22,0.21,1.82,0.06c0.3-0.07,0.61-0.13,0.92-0.26c0.32-0.11,0.64-0.25,0.99-0.49l0.02-0.19
				c-0.59-0.58-1.26-0.82-1.94-0.95c-0.69-0.13-1.36,0.15-2.02,0.33c-0.66,0.17-1.31,0.4-1.92,0.72c-0.6,0.33-1.18,0.68-1.65,1.19
				L453.22,227.61z"/>
		</g>
		<g>
			<path class="st9" d="M472.31,422.38c0.01,0.42-0.58,1.03-2.02,1.03c-1.44,0-40.06,0-45.29,0c-5.22,0-6.44-2.07-4.87-4.68
				c1.57-2.61,8.18-8.36,24.55-12.36c16.36-4,24.97,5.36,27.63,9.58C474.26,419.03,472.31,422.38,472.31,422.38z"/>
			<path class="st10" d="M419.75,419.51c0.9,3,35.46,1.43,35.46,1.43s-3.5-4.73-7.38-4.87c-3.87-0.14-5.76,1.21-10.95,2.1
				c-5.19,0.89-1.34-2.11-1.34-2.11s-3.67-0.81-5.16-1.97c0,0,8.56-2.53,12.15-3.12c3.59-0.59,12.73-0.2,13.91,0
				c0.83,0.14,5.05-2.31,10.15-1.08c2.84,2.08,4.73,4.43,5.74,6.04c1.95,3.09,0,6.43,0,6.43c0.01,0.42-0.58,1.03-2.02,1.03
				c-1.44,0-40.06,0-45.29,0C420.32,423.4,418.87,421.74,419.75,419.51z"/>
			<path class="st5" d="M567.55,394.06c0,0-32.21,4.98-49.66,8.1c-16.54,2.96-30.81,4.24-34.86,3.46
				c-4.05-0.78-17.89-5.88-22.33-7.7s-13.32-2.87-17.89-1.44c-4.57,1.44-8.31,3-10.14,3s-1.48,2.96,0.96,3.57
				c2.44,0.61,4.61,0.52,4.61,0.52s-8.27,4.53-9.75,4.96s0.27,3.13,2.28,2.96c0,0-1.75,1.04-1.14,2.09
				c0.61,1.04,4.96,1.04,4.96,1.04s-5.31,2.61-0.87,3.66c4.44,1.04,9.75-3.92,11.93-4.35c2.18-0.44,7.22-0.17,9.66,1.65
				c2.44,1.83,12.88,10.27,27.16,5.22c0,0,96.9,3.93,106.56,3.93c9.66,0,15.5-8.54,12.4-24.99c-3.1-16.45-9.1-28.73-9.1-28.73
				l-33.43,2.35L567.55,394.06z"/>
			<g>
				<path class="st6" d="M445.87,400.97c0.85-0.2,1.53-0.32,1.96-0.34C447.83,400.62,447,400.76,445.87,400.97z"/>
				<path class="st6" d="M438.24,403.58c0,0-2.18,0.09-4.61-0.52c-0.69-0.17-1.2-0.53-1.55-0.96c2.71,1.2,6.05,0.43,7.87,0
					c1.15-0.27,3.98-0.79,5.92-1.14C443.93,401.42,441.09,402.31,438.24,403.58z"/>
			</g>
			<g>
				<path class="st6" d="M438.67,407.5c0.21-0.09,0.39-0.17,0.5-0.2C439.17,407.29,438.98,407.37,438.67,407.5z"/>
				<path class="st6" d="M428.51,410.48c0.03,0.03,0.99,0.87,3,0c1.68-0.73,5.74-2.4,7.16-2.98c-1.78,0.81-6.61,3.54-7.9,4
					C429.88,411.58,429.04,411.09,428.51,410.48z"/>
			</g>
			<path class="st6" d="M433.51,413.68c1.48-0.44,4.57-2.31,6.46-3.2c1.89-0.89,4.31-1,4.31-1s-0.72,0.07-2.61,1
				c-1.89,0.93-7.08,4.16-7.08,4.16s-2.79,0-4.22-0.54C430.38,414.1,432.04,414.11,433.51,413.68z"/>
			<path class="st6" d="M461.06,415.81c2.74,1.7,10.84,3.92,15.67,3c4.83-0.91,5.88-4.96,5.88-4.96l1.35,4.35
				c0,0,67.2,1.92,80.87,1.3c13.51-0.61,34.58-0.91,37.33-9.03c-0.75,9.42-5.86,14.27-13.13,14.27c-9.66,0-106.56-3.93-106.56-3.93
				c-14.28,5.05-24.72-3.39-27.16-5.22c-2.03-1.52-5.85-1.95-8.34-1.81c0,0,0,0,0,0C450.67,412.49,458.32,414.11,461.06,415.81z"/>
			<path class="st6" d="M567.55,394.06c0,0,12.59-1.71,15.11-1.97l-1.92-7.83l-15.93,3.22L567.55,394.06z"/>
			<path class="st7" d="M601.2,372.13c0.47,1.23,0.17,2.61-0.77,3.52c-5.85,5.71-13.53,13.5-21.43,14.69
				c-8.62,1.31-22.98,1.83-23.76,0s-3.66-25.07-8.88-36.82c-5.22-11.75-8.62-17.76-9.92-24.55c-1.31-6.79,10.45-22.72,15.67-24.03
				c5.22-1.31,17.24-2.09,22.2,2.35c4.96,4.44,8.62,21.41,14.36,34.21C593.29,351.84,599.12,366.76,601.2,372.13z"/>
			<g>
				<path class="st8" d="M568.87,304.73c-1.6-0.18-3.2-0.32-4.8-0.35c-1.6-0.06-3.2-0.06-4.79,0.03c-1.59,0.1-3.17,0.26-4.73,0.54
					c-0.78,0.12-1.55,0.31-2.32,0.48c-0.72,0.26-1.46,0.45-2.12,0.86c-0.7,0.31-1.31,0.81-1.96,1.24c-0.59,0.52-1.21,0.99-1.75,1.57
					c-1.15,1.08-2.11,2.35-3.1,3.59c-0.96,1.27-1.82,2.62-2.65,3.99c-0.85,1.36-1.6,2.77-2.34,4.21c1.08-3.04,2.57-5.93,4.36-8.64
					c0.91-1.34,1.9-2.65,3.05-3.82c0.54-0.62,1.21-1.12,1.82-1.67c0.68-0.47,1.33-1,2.09-1.36c0.72-0.43,1.55-0.65,2.35-0.93
					c0.8-0.17,1.6-0.36,2.4-0.46c1.61-0.23,3.24-0.38,4.86-0.37C562.51,303.64,565.74,303.95,568.87,304.73z"/>
			</g>
			<path class="st8" d="M594.68,376.94c-0.04-4.17-8.85-42.42-16.64-63.75l0,0c3.31,7.29,6.4,18.92,10.62,28.32
				c4.64,10.33,10.46,25.24,12.54,30.62c0.47,1.23,0.17,2.61-0.77,3.52c-2.24,2.19-4.75,4.68-7.44,6.99
				C593.19,382.45,594.72,380.84,594.68,376.94z"/>
		</g>
	</g>
	<g>
		<g>
			<g>
				<path class="st14" d="M174.62,333.85c-0.16,1.29,0.11,2.58,0.74,3.72c2.28,4.14,3.43,8.91,3.28,13.63
					c-0.1,3.12-0.74,6.3,0.11,9.3c1.46,5.18,6.93,8.37,8.68,13.46c1.56,4.51,0.11,10.17,3.35,13.67c0.8,0.87,2.05,1.53,3.15,1.09
					c0.55-0.22,0.96-0.68,1.36-1.13c3.71-4.22,7.69-9.34,6.54-14.84c-1.08-5.17-6.4-8.66-7.41-13.84
					c-0.82-4.23,1.34-9.12-1.09-12.68c-0.67-0.98-1.63-1.74-2.36-2.68c-2.88-3.7-1.82-9.61-5.14-12.92
					c-1.08-1.08-2.44-1.69-3.92-2.01C178.43,327.89,175.06,330.31,174.62,333.85L174.62,333.85z"/>
			</g>
			<g>
				<path class="st15" d="M195.74,399.51c0.22-2.76,0.32-5.51,0.42-8.28c-0.13-2.76-0.27-5.51-0.51-8.27
					c-0.24-2.75-0.55-5.51-1.03-8.25c-0.5-2.72-1.15-5.5-2.29-8.06c-2-5.06-3.62-10.34-5.25-15.58l-2.37-7.9
					c-0.97-2.58-1.92-5.17-2.84-7.77c0.4,2.74,1.03,5.43,1.58,8.14l2.37,7.92c1.64,5.26,3.24,10.52,5.29,15.7
					c1.11,2.48,1.72,5.1,2.21,7.78c0.48,2.68,0.78,5.4,1.02,8.13c0.23,2.73,0.39,5.47,0.49,8.21L195.74,399.51z"/>
				<path class="st15" d="M181.19,343.64c0.45,0.69,1.04,1.2,1.67,1.66c0.32,0.22,0.7,0.36,1.05,0.54c0.36,0.17,0.67,0.4,0.96,0.66
					l0.13,0.11l0.11-0.17c0.26-0.4,0.58-0.78,0.83-1.18c0.24-0.41,0.5-0.82,0.71-1.24c0.42-0.86,0.73-1.77,0.89-2.75l-0.08-0.04
					c-0.69,0.72-1.22,1.52-1.65,2.37c-0.21,0.43-0.38,0.88-0.56,1.32c-0.17,0.45-0.28,0.93-0.44,1.38l0.24-0.06
					c-0.34-0.2-0.65-0.43-0.92-0.72c-0.27-0.28-0.52-0.6-0.82-0.85c-0.62-0.47-1.29-0.87-2.08-1.11L181.19,343.64z"/>
				<path class="st15" d="M181.86,353.06c0.47,0.39,0.96,0.81,1.47,1.16c0.51,0.36,1.03,0.71,1.59,0.99
					c0.57,0.27,1.17,0.49,1.71,0.8c0.55,0.3,1.05,0.68,1.54,1.08l0.17,0.14l0.17-0.23c0.76-0.99,1.4-2.04,2.01-3.11
					c0.57-1.09,1.09-2.22,1.45-3.43l-0.08-0.04c-0.85,0.94-1.55,1.96-2.19,3.01c-0.6,1.08-1.17,2.17-1.63,3.33l0.35-0.09
					c-0.57-0.27-1.14-0.55-1.65-0.9c-0.52-0.35-0.98-0.79-1.48-1.18c-0.51-0.37-1.06-0.68-1.62-0.96c-0.57-0.27-1.14-0.54-1.8-0.67
					L181.86,353.06z"/>
				<path class="st15" d="M185.21,365.5c0.52,0.52,1.1,0.91,1.7,1.26c0.59,0.36,1.24,0.6,1.93,0.77c0.69,0.17,1.31,0.47,1.86,0.89
					c0.55,0.42,1.09,0.88,1.65,1.25l0.42,0.27l0.31-0.47c0.46-0.69,0.87-1.4,1.2-2.16c0.32-0.76,0.61-1.54,0.77-2.39l-0.1-0.05
					c-0.63,0.59-1.14,1.25-1.6,1.93c-0.47,0.68-0.85,1.41-1.18,2.17l0.73-0.19c-0.63-0.35-1.3-0.55-1.97-0.78
					c-0.66-0.23-1.27-0.56-1.82-1.01c-0.54-0.46-1.14-0.83-1.79-1.07c-0.65-0.25-1.32-0.46-2.05-0.52L185.21,365.5z"/>
			</g>
		</g>
		<g>
			<g>
				<path class="st16" d="M200.12,400.05c2.15-0.35,10.23-2.94,9.67-5.05c-2.42-9.05-4.84-19.32,3.54-23.75
					c4.03-2.13,9.1-3.21,11.4-7.16c2.37-4.06,0.62-9.22-1.5-13.41c-2.12-4.19-4.68-8.68-3.77-13.29c0.95-4.83,5.52-8.39,6.25-13.26
					c1-6.64-5.46-12-11.65-14.59c-2.11-0.88-4.43-1.64-6.65-1.1c-1.59,0.38-2.96,1.4-4.05,2.62c-4.35,4.87-4.18,12.21-3.18,18.67
					s2.51,13.27,0.08,19.34c-1.73,4.31-5.42,8.36-4.43,12.89c0.4,1.82,1.53,3.4,1.96,5.21c1.16,4.87-2.88,9.26-4.74,13.92
					c-2.39,6-0.75,13.34,3.79,17.9C197.69,399.84,198.92,400.25,200.12,400.05L200.12,400.05z"/>
			</g>
			<g>
				<path class="st15" d="M199.36,400.15c0.5-3.58,1-7.15,1.64-10.7c0.15-0.89,0.34-1.77,0.48-2.65c0.13-0.89,0.21-1.78,0.36-2.67
					c0.27-1.77,0.57-3.54,0.9-5.3c0.68-3.51,1.5-7.01,2.7-10.33c0.6-1.65,1.32-3.28,2.26-4.67c0.47-0.7,1.02-1.31,1.63-1.73
					c0.81-0.53,1.58-1.21,2.18-2.03c1.24-1.65,1.62-3.74,1.57-5.62c-0.04-1.91-0.4-3.73-0.81-5.51c-0.83-3.56-1.88-6.99-2.46-10.49
					c-0.59-3.48-0.7-7.04,0.21-10.38c0.28-0.81,0.5-1.64,0.77-2.47c0.27-0.83,0.63-1.63,1.03-2.41c0.8-1.57,1.85-3.04,3.02-4.43
					c-1.43,1.12-2.75,2.41-3.85,3.9c-0.55,0.74-1.07,1.53-1.51,2.36c-0.46,0.82-0.84,1.7-1.04,2.62c-1.01,3.65-0.86,7.48-0.25,11.09
					c0.6,3.63,1.67,7.11,2.48,10.58c0.39,1.73,0.73,3.47,0.77,5.17c0.04,1.69-0.29,3.35-1.25,4.62c-0.47,0.64-1.07,1.17-1.77,1.63
					c-0.88,0.6-1.54,1.37-2.08,2.17c-1.08,1.6-1.82,3.31-2.45,5.04c-1.25,3.47-2.08,7.02-2.77,10.58c-0.34,1.78-0.65,3.57-0.92,5.37
					c-0.12,0.9-0.29,1.79-0.4,2.69c-0.09,0.9-0.13,1.81-0.19,2.71C199.43,392.91,199.3,396.53,199.36,400.15z"/>
				<path class="st15" d="M213.67,329.49c-0.62,0.22-1.14,0.58-1.62,0.96c-0.48,0.39-0.93,0.81-1.27,1.33
					c-0.34,0.52-0.64,1.07-1.08,1.5c-0.42,0.44-0.93,0.81-1.41,1.2l0.64,0.04c-0.22-0.46-0.48-0.9-0.72-1.34
					c-0.25-0.44-0.5-0.88-0.8-1.29c-0.28-0.42-0.6-0.81-0.9-1.22c-0.31-0.4-0.65-0.78-0.93-1.2l-0.11,0.02
					c-0.02,0.56,0.15,1.09,0.32,1.58c0.19,0.49,0.4,0.97,0.66,1.42c0.24,0.46,0.54,0.88,0.85,1.29c0.31,0.41,0.61,0.82,0.98,1.2
					l0.4,0.42l0.24-0.38c0.33-0.52,0.64-1.06,1.05-1.51c0.39-0.47,0.92-0.8,1.42-1.16c0.51-0.36,0.9-0.81,1.29-1.27
					c0.39-0.47,0.75-0.95,1.07-1.51L213.67,329.49z"/>
				<path class="st15" d="M205.84,343.2c0.26,0.62,0.59,1.18,0.96,1.71c0.38,0.52,0.78,1.03,1.23,1.48c0.47,0.44,1,0.82,1.5,1.23
					c0.49,0.42,0.92,0.89,1.31,1.4l0.12,0.16l0.18-0.14c0.65-0.52,1.17-0.99,1.68-1.55c0.49-0.56,1.01-1.08,1.46-1.66
					c0.46-0.58,0.88-1.17,1.29-1.79c0.41-0.61,0.78-1.25,1.2-1.85l-0.06-0.09c-0.71,0.34-1.27,0.86-1.82,1.36
					c-0.54,0.51-1.05,1.06-1.52,1.63c-0.47,0.57-0.87,1.19-1.31,1.78c-0.43,0.58-0.79,1.29-1.2,1.8l0.3,0.02
					c-0.5-0.41-0.94-0.86-1.33-1.38c-0.37-0.52-0.71-1.08-1.1-1.58c-0.4-0.49-0.86-0.93-1.32-1.38c-0.47-0.44-0.96-0.85-1.5-1.23
					L205.84,343.2z"/>
				<path class="st15" d="M220.24,353.78c-0.68,0.8-1.38,1.53-2.11,2.24c-0.72,0.7-1.5,1.32-2.26,2c-0.77,0.65-1.64,1.24-2.63,1.53
					c-0.98,0.31-2.02,0.35-3.03,0.34l0.45,0.32c-0.18-0.85-0.44-1.64-0.72-2.45c-0.27-0.81-0.62-1.59-1.04-2.33
					c-0.42-0.75-0.91-1.46-1.49-2.11c-0.59-0.63-1.28-1.22-2.1-1.51l-0.06,0.09c0.62,0.56,1.1,1.21,1.51,1.9
					c0.42,0.69,0.78,1.41,1.13,2.14l1.01,2.22c0.33,0.75,0.62,1.52,0.91,2.28l0.14,0.36l0.31-0.05c1.07-0.17,2.08-0.53,3.07-0.88
					c0.98-0.38,1.99-0.72,2.95-1.21c0.97-0.48,1.79-1.21,2.48-2.04c0.69-0.82,1.25-1.76,1.55-2.79L220.24,353.78z"/>
				<path class="st15" d="M200.76,361.88c-0.33,0.79-0.44,1.66-0.42,2.51c0.04,0.85,0.17,1.72,0.47,2.52
					c0.31,0.8,0.78,1.53,1.29,2.2l1.51,2l0.11,0.14l0.17-0.12c0.82-0.58,1.74-1.02,2.63-1.48c0.88-0.47,1.8-0.88,2.71-1.27
					c0.91-0.39,1.83-0.79,2.77-1.15c0.93-0.38,1.89-0.69,2.86-1.05l-0.02-0.11c-2.08-0.05-4.18,0.4-6.09,1.24
					c-0.96,0.42-1.86,0.95-2.73,1.52c-0.87,0.58-1.64,1.28-2.4,2l0.28,0.02c-0.56-0.59-1.07-1.24-1.39-1.99
					c-0.36-0.73-0.54-1.52-0.79-2.27c-0.48-1.5-0.79-3.04-0.86-4.7L200.76,361.88z"/>
			</g>
		</g>
		<g>
			<g>
				<g>
					<path class="st9" d="M185.48,423.4h23.06c2.14,0,3.96-1.85,4.28-4.35l3.65-28.36c0.4-3.1-1.63-5.9-4.28-5.9h-30.36
						c-2.65,0-4.68,2.79-4.28,5.9l3.65,28.36C181.52,421.55,183.34,423.4,185.48,423.4z"/>
				</g>
			</g>
			<path class="st10" d="M181.83,384.79h15.52c-2.65,0-4.68,2.79-4.28,5.9l3.65,28.36c0.32,2.5,2.14,4.35,4.28,4.35h-15.52
				c-2.14,0-3.96-1.85-4.28-4.35l-3.65-28.36C177.15,387.59,179.18,384.79,181.83,384.79z"/>
		</g>
	</g>
	<g>
		<g>
			<path class="st17" d="M392.01,415.62h-96.43c-0.97,0-1.76,0.79-1.76,1.76v4.27c0,0.97,0.79,1.76,1.76,1.76h96.43V415.62z"/>
			<path class="st9" d="M416.83,420.99v1.74c0,0.38-0.3,0.68-0.68,0.68h-24.29c-0.76,0-1.37-0.61-1.37-1.37v-5.06
				c0-0.82,0.71-1.45,1.52-1.36l24.21,4.7C416.57,420.35,416.83,420.64,416.83,420.99z"/>
		</g>
		<g>
			<g>
				<path class="st9" d="M223.49,251.72h180.23c3.65,0,6.9,2.29,8.14,5.72l39.42,109.46c1.65,5.65-2.48,9.88-9.12,10.59
					c-1.02,0.11-5.86-2.07-13.46-5.64H267.57c-3.65,0-6.9-2.29-8.14-5.72l-35.61-98.88c-6.02-3.14-9.45-4.94-9.45-4.94
					S212.14,251.72,223.49,251.72z"/>
				<path class="st10" d="M398.07,257.36H217.85c-2.56,0-4.34,2.54-3.48,4.95l39.42,109.46c1.24,3.43,4.49,5.72,8.14,5.72h180.23
					c2.56,0,4.34-2.54,3.48-4.95l-39.42-109.46C404.98,259.65,401.72,257.36,398.07,257.36z"/>
				<polygon class="st17" points="357.39,377.49 349.39,347.81 319.07,377.49 				"/>
				<path class="st9" d="M313.51,295.8c0.79,4.89,3.96,6.87,7.75,6.87c3.79,0,6.64-3.13,5.98-6.87c-0.66-3.73-3.96-6.87-7.75-6.87
					S312.9,292.06,313.51,295.8z"/>
				<g>
					<polygon class="st17" points="398.21,359.27 395.89,352.84 398.8,352.84 401.12,359.27 					"/>
					<polygon class="st17" points="392.07,359.27 389.75,352.84 392.67,352.84 394.99,359.27 					"/>
					<polygon class="st17" points="385.94,359.27 383.62,352.84 386.53,352.84 388.85,359.27 					"/>
					<polygon class="st17" points="379.8,359.27 377.49,352.84 380.4,352.84 382.72,359.27 					"/>
				</g>
				<g>
					<polygon class="st17" points="292.67,359.27 290.35,352.84 293.26,352.84 295.58,359.27 					"/>
					<polygon class="st17" points="286.53,359.27 284.22,352.84 287.13,352.84 289.45,359.27 					"/>
					<polygon class="st17" points="280.4,359.27 278.08,352.84 280.99,352.84 283.31,359.27 					"/>
					<polygon class="st17" points="274.26,359.27 271.95,352.84 274.86,352.84 277.18,359.27 					"/>
				</g>
			</g>
			<g>
				<path class="st10" d="M296.53,412.83c1.78-5.11,23.35-74.7,23.35-74.7h27.68l1.83,9.69c0,0-18.56,59.9-20.34,65.01
					c-0.14,0.39-0.26,0.78-0.39,1.17l0,0c-1.63,5,2.66,4.98,7.5,4.98c4.83,0,48.82,0,48.82,0v4.43h-48.82h-32.52
					C293.86,423.4,294.75,417.94,296.53,412.83z"/>
				<path class="st9" d="M347.56,338.12c0,0-21.57,69.59-23.35,74.7c-1.78,5.11-2.67,10.58,7.11,10.58h-32.52
					c-9.78,0-8.89-5.46-7.11-10.58c1.78-5.11,23.35-74.7,23.35-74.7H347.56z"/>
				<path class="st18" d="M340.78,338.12c-2.14-0.1-4.29-0.15-6.43-0.22c-2.14-0.07-4.29-0.09-6.43-0.14
					c-2.14-0.03-4.29-0.1-6.43-0.1l-6.43-0.04l-0.36,0l-0.11,0.35c-0.9,2.8-1.78,5.61-2.62,8.43l-2.57,8.45
					c-1.65,5.65-3.3,11.3-4.81,16.99c1.98-5.55,3.82-11.14,5.66-16.73l2.67-8.41c0.9-2.8,1.76-5.61,2.61-8.43l-0.47,0.35l6.43-0.04
					c2.14,0,4.29-0.06,6.43-0.1c2.14-0.05,4.29-0.06,6.43-0.14C336.49,338.27,338.63,338.22,340.78,338.12z"/>
			</g>
		</g>
	</g>
	<g>
		<path class="st19" d="M152.18,440.49h477.34c4.72,0,8.54-3.82,8.54-8.54l0,0c0-4.72-3.82-8.54-8.54-8.54H152.18
			c-4.72,0-8.54,3.82-8.54,8.54l0,0C143.63,436.66,147.46,440.49,152.18,440.49z"/>
		<path class="st20" d="M152.18,440.49h477.34c4.72,0,8.54-3.82,8.54-8.54l0,0H143.63l0,0
			C143.63,436.66,147.46,440.49,152.18,440.49z"/>
	</g>
	<g>
		
			<ellipse id="XMLID_2_" transform="matrix(0.2279 -0.9737 0.9737 0.2279 -9.1089 294.5681)" class="st7" cx="181.19" cy="153.03" rx="71.85" ry="71.85"/>
		<g>
			<defs>
				<path id="SVGID_1_" d="M253.04,153.03c0,39.68-32.17,71.85-71.85,71.85c-39.68,0-71.85-32.17-71.85-71.85
					c0-39.68,32.17-85.8,71.85-85.8C220.87,67.23,253.04,113.35,253.04,153.03z"/>
			</defs>
			<clipPath id="SVGID_00000087376946983156330810000001010093885388081595_">
				<use xlink:href="#SVGID_1_"  style="overflow:visible;"/>
			</clipPath>
			<g style="clip-path:url(#SVGID_00000087376946983156330810000001010093885388081595_);">
				<g>
					<g>
						<path class="st22" d="M282.22,210.37c1.36,6.86-4.98,12.95-6.97,14.09c-1.99,1.14-15.32,6.47-23.34,6.66
							c-8.01,0.19-18.58-16.76-14.26-18.66c4.33-1.9,33.81-4,37.04-4C277.94,208.46,282.22,210.37,282.22,210.37z"/>
						<path class="st0" d="M261.21,206.75c-3.5,20.57-11.8,36.56-14.39,36.85c-2.59,0.29-27.49-8.28-34.35-11.43
							c-6.86-3.14,2.11-51.41,6.38-50.56c4.27,0.85,13.64,10.12,21.37,14.57C247.95,200.63,261.21,206.75,261.21,206.75z"/>
						<path class="st23" d="M220.2,215.3c2.4,4.12,22.18,14.55,33.08,18.35c-2.69,6.07-5.23,9.81-6.47,9.95
							c-2.22,0.24-20.79-6-30.39-9.78C217.23,226.18,220.2,215.3,220.2,215.3z"/>
						<path class="st22" d="M282.25,209.42c0.2,8.16-7.15,9.33-15.95,7.24c-8.8-2.09-23.16-21.9-29.56-30.85
							c-6.39-8.95-18.33-24.9-20.79-26.33c-2.47-1.43-8.12-2.19-12.97-10.23c-4.84-8.05,1.53-24.9,3.81-26.9
							c2.29-2,21.89,4.68,24.17,8.05c2.28,3.37-1.61,21.51-0.92,23.8c0.69,2.28,17.38,20.95,24.66,25.52
							C261.99,184.28,282.1,203.51,282.25,209.42z"/>
						<path class="st24" d="M216.84,135.81c-2.31-1.14-2.86-6.33-1.41-5.42c1.45,0.91,3.99,0.89,7.42,0.85
							c3.43-0.05,4.84-0.34,4.84-0.34s0.35,2.25,0.33,4.09C228.02,134.99,219.14,136.95,216.84,135.81z"/>
						<path class="st24" d="M201.57,136.99c1.4-2.6,2.48-4.57,2.48-4.57l13.49,12.98c3.69-3.2,8.2-6.12,8.2-6.12l1.19,2.12
							c-2.18,3.69-4.08,11.5-4.13,13.4c0,0-2.07,2.29-3.23,2.48c0,0,14.43,22.85,23.7,34.09c9.22,11.17,15.54,20.83,19.88,23.93
							c-8.77-5.06-20.73-21.54-26.41-29.5c-6.39-8.95-18.33-24.9-20.79-26.33c-2.47-1.43-8.12-2.19-12.97-10.23
							C201.06,146.05,200.92,141.48,201.57,136.99z"/>
						<path class="st25" d="M229.64,138.29c-0.16,1.33-13.57,12.95-14.97,14.28c-0.1,0.1-1.15,0.25-1.44,0
							c-3.56-3.13-19.13-31.39-19.4-32.41c-0.26-0.95,10.07-10.67,13.23-13.27c0.43-0.35,2.2-0.14,2.49,0.29
							C212.73,111.89,229.85,136.57,229.64,138.29z"/>
						<path class="st26" d="M228.2,138.29c-0.16,1.33-13.57,12.95-14.97,14.28c-1.4,1.33-20.54-31.31-20.85-32.41
							c-0.26-0.95,11.24-10.51,14.4-13.12c0.43-0.35,1.03-0.3,1.32,0.13C211.29,111.89,228.41,136.57,228.2,138.29z"/>
						<path class="st27" d="M225.95,136.38c-0.15,1.25-12.69,12.11-14,13.36c-1.31,1.25-19.22-29.29-19.5-30.32
							c-0.24-0.89,10.52-9.84,13.47-12.27c0.4-0.33,0.96-0.28,1.23,0.12C210.12,111.69,226.14,134.77,225.95,136.38z"/>
						<path class="st22" d="M217.91,120.45c-2.07-1.25-4.62-5.49-4.85-6.92c-0.23-1.43-0.09-2.71,1.03-3
							c1.12-0.29,4.55,4.19,6.26,5.52c1.71,1.33,3.8,4.09,2.95,5.95c-0.85,1.86-4.65,1.14-5.06,0.86
							C217.82,122.58,217.91,120.45,217.91,120.45z"/>
						<path class="st24" d="M213.44,110.91c-0.66,1.62,3.63,8.14,7.39,10.02l-1.4,1.6c0,0-0.63-0.14-1.45-0.33
							c-0.11-0.72-0.08-1.74-0.08-1.74c-2.07-1.25-4.62-5.49-4.85-6.92C212.88,112.46,212.93,111.46,213.44,110.91z"/>
						<path class="st22" d="M222.73,127.04c-3.57-1.91-6.37-1.69-8.31-2.48c-1.94-0.79-2.3-3.78-0.97-4.28
							c1.32-0.5,9.37,0.79,11.44,1.71c2.07,0.93,3.07,5.2,3.07,5.2L222.73,127.04z"/>
						<path class="st24" d="M221.17,124.81c2.02,0.38,2.71,0,2.71,0c-0.06,0.79,0.69,1.18,1.53,2.3l-2.68-0.08
							c-3.57-1.91-6.37-1.69-8.31-2.48c-0.89-0.36-1.42-1.18-1.64-2.01C213.64,124.19,219.16,124.43,221.17,124.81z"/>
						<path class="st22" d="M230.97,130.4c-1.91,2.64-11.25,1.49-13.13,1.21c-1.88-0.29-3.07-1.47-2.87-2.67
							c0.39-2.42,12.73-1.99,13.75-1.61C229.73,127.7,230.97,130.4,230.97,130.4z"/>
						<path class="st24" d="M215.03,129.51c1.28,1.27,4.35,1.99,7.69,2.26c2.9,0.23,4.57,0.12,4.95,0.09
							c-3.52,0.56-8.52-0.06-9.84-0.26C216.26,131.37,215.23,130.49,215.03,129.51z"/>
					</g>
					<g>
						<path class="st0" d="M187.24,167.33c19.83,10.09,23.09,9.7,31.6,14.28c8.52,4.58,5.98,52.75,5.44,60.18
							c-0.54,7.43-2.59,36.94-1.46,44.94c1.13,8,5.54,37.7,7.49,42.27c1.95,4.57,5.68,12.28-0.08,16.85
							c-5.76,4.57-17.95,7.71-44.4,6c-26.46-1.71-54.98-18-56.24-20.28c-1.26-2.29,12.65-44.27,13.23-52.27c0.58-8,2.16-14,3-17.71
							c0.84-3.71-7.58-21.14-8.92-32.28c-1.34-11.14-13.45-41.87-11.15-47.5c2.3-5.63,23.37-11.9,37.73-19.06
							C177.83,155.6,187.24,167.33,187.24,167.33z"/>
						<path class="st23" d="M206.9,179.82c-3.27,10.73-9.91,20.4-18.76,27.3c-10.74-2.63-21.66-7.37-30.45-14.07
							c9.83,7.24,20.55,13.33,32.02,17.49C199.41,202.6,205.16,192.23,206.9,179.82z"/>
						<path class="st22" d="M202.85,174.72c-3.81-1.62-8.7-3.87-15.61-7.38c0,0-9.41-11.73-23.77-4.58
							c-4.98,2.48-10.77,4.86-16.3,7.14c8.55,14.55,22.41,25.93,38.4,31.34C194,194.6,200.07,185.08,202.85,174.72z"/>
						<path class="st23" d="M129.59,331.57c-1.26-2.29,12.65-44.27,13.23-52.27c0.58-8,2.16-14,3-17.71
							c0.84-3.71-7.58-21.14-8.92-32.28c-0.23-1.94-0.8-4.47-1.55-7.36l8.94-6.66c5.24,14.63,8.51,40.33,13.48,46.62
							c4.97,6.28,17.35,8.85,17.35,8.85s-12.23,2.86-17.56,1.71c0,0-5.69,22.57-5.76,33.7c-0.06,11.14,0.97,27.99,1.1,30.28
							c0.05,0.85-0.14,3.83-0.39,7.22C139.7,338.61,130.3,332.86,129.59,331.57z"/>
						<path class="st22" d="M165.73,142.46c-0.2,11.92-0.99,20.11-3.63,22.39c0,0,4.54,19.78,22.68,18.09
							c6.14-0.57,5.55-10.85,2.47-15.61l1.83-14.62L165.73,142.46z"/>
						<path class="st24" d="M163.48,162.76L163.48,162.76c1.55-3.66,2.09-10.78,2.25-20.29l23.34,10.25l-1.17,9.38l0,0
							C183.76,163.94,163.48,162.76,163.48,162.76z"/>
					</g>
					<g>
						<path class="st22" d="M101.46,238.86c-4.02,5.52-9.4,19.23-7.38,25.52c2.02,6.28,22.83,34.28,32.35,44.75
							s11.68,12.19,13.34,15.61c1.65,3.43,9.77,17.57,11.9,19.71c2.13,2.14,5.96,2.43,5.96,2.43s2.87,3.14,8.36,2.57
							c0,0,4.78,3.28,8.58,4.14c0,0,1.25,2.43,2.52,2.64c1.27,0.22,2.88-2.36,0.55-7.5c-2.34-5.14-6.18-7.28-6.8-10.57
							c-0.62-3.28-3.59-9.99-3.59-9.99s6.68,6.84,10.79,7.27s4.66-2,2.41-4c-2.26-2-5.18-5-7.9-8.85c-2.72-3.86-6.1-6.43-11.33-7.14
							c-5.23-0.71-8.9-1.29-10.26-2.29c-1.36-1-8.2-10.71-12.87-21.18c-4.68-10.47-8.86-23.86-20.75-35.61l5.24-9.14L101.46,238.86z
							"/>
						<path class="st24" d="M174.39,352.94c-1.01-2.9-2.88-5.37-4.92-7.57l-0.81-0.8c-0.24-0.25-0.66-0.56-0.76-0.71
							c-0.41-0.52-0.76-1.21-1.16-1.83c-0.75-1.28-1.49-2.59-2.32-3.85c0.4,1.48,0.93,2.9,1.53,4.3c0.29,0.71,0.61,1.37,1.06,2.07
							c0.35,0.46,0.57,0.56,0.84,0.85l0.76,0.79c1.03,1.05,2,2.16,2.98,3.27C172.57,350.57,173.48,351.73,174.39,352.94z"/>
						<path class="st24" d="M165.76,348.46c-0.79-1.54-1.72-2.87-2.55-4.27c-0.87-1.38-1.65-2.77-2.44-4.3
							c-0.09,1.8,0.58,3.49,1.45,4.94C163.13,346.28,164.3,347.55,165.76,348.46z"/>
						<path class="st24" d="M161.58,349.07c-2.59-0.75-3.96-2.19-3.96-2.19s-3.84-0.29-5.96-2.43c-0.87-0.88-2.74-3.76-4.76-7.09
							c0.04,0.05,2.44,2.65,4.16,4.8c2.42,3.02,5.9,2.02,5.9,2.02l-0.47-2.78C156.49,341.39,158.81,347.72,161.58,349.07z"/>
						<path class="st24" d="M93.99,257.4c0.11,2.61,0.14,4.68,4.01,11.52c4.35,7.7,30.5,40.13,36.2,46.13
							c5.7,6,5.53,6.38,8.91,15.86c-1.52-2.68-2.8-5.02-3.35-6.16c-1.65-3.43-3.82-5.14-13.34-15.61s-30.33-38.47-32.35-44.75
							C93.49,262.56,93.54,260.09,93.99,257.4z"/>
						<path class="st24" d="M114.48,249.9l-2.12,3.54c0,0,2.87,0.78,4.96,2.94l4.14-7.03L114.48,249.9z"/>
						<path class="st0" d="M139.54,230.54c5.46-10.74,7.65-28.17,2.72-37.35c-4.93-9.18-14.23-12.48-16.51-11.38
							c-2.28,1.1-8.46,15.42-14.27,22.02c-5.8,6.61-21.65,25.14-22.13,26.7c-0.48,1.56,11.45,14.15,33.9,23.4
							C125.92,255.04,139.54,230.54,139.54,230.54z"/>
						<path class="st23" d="M122.89,238.86l-3.58,7.34c0,0,17.64-17.68,24.96-30.88c-0.89,5.5-2.54,10.9-4.73,15.21
							c0,0-13.62,24.5-16.29,23.4c-3.84-1.58-7.35-3.26-10.56-4.97L122.89,238.86z"/>
					</g>
					<g>
						<path class="st10" d="M190.42,143.53c-1.21-4.91-1.19-9.94-1.48-14.96c-0.22-3.76-0.41-7.2-3.82-9.44
							c-2.49-1.64-5.62-1.96-8.55-1.59c-7.88,1-9.57,8.68-8.97,15.95c0.46,5.57,2.64,10.91,4.79,16.03
							c-2.9-0.13-6.86-1.65-8.59-4.06c0.78,3.17,2.25,6.09,4.55,8.33c-8.4-0.14-16.19-5.64-20.64-13.02
							c-4.45-7.38-5.86-16.39-5.38-25.08c0.56-10.31,3.78-20.64,10.15-28.58c12.82-15.96,37.53-17.82,52.58-4.11
							c5.17,4.72,8.92,11.04,10.8,17.89c2.47,9.01,2.42,18.68,0.49,27.8c-0.8,3.77-1.16,7.04-1.54,10.82
							c-0.12,1.17-1.54,14.78-0.72,14.73c-5.31,0.32-11.4-0.75-14.99-4.8c1.61,2.78,3,5.47,4.61,8.25
							C197.02,156.58,192.1,150.34,190.42,143.53z"/>
						<path class="st22" d="M162.89,124.99c-2.37-1.4-5.22-2.16-7.42,0.07c-3.24,3.28,1.36,18.57,8.34,14.85
							c0,0,10.11,14.14,17.53,18.14c7.42,4,12.71,2,15.49-0.86c2.78-2.86,12.26-14.57,13.96-26.99c0.61-4.43-0.04-13.14,0.09-15
							c0.42-5.71,2.58-10.4-1.93-14.89c-4.55-4.53-10.86-7.27-17.27-7.5c-8.08-0.29-16.16,3.35-21.52,9.41
							C164.26,108.93,163.23,116.5,162.89,124.99z"/>
						<path class="st24" d="M156.62,129.24c0.6-2.8,2.99-3.35,4.77-1.4c1.82,2,2.13,8.33,1.66,9.27c-0.47,0.93-3.6,0.87-4.19-1.07
							c-0.59-1.93,1.23-3.15,2.99-2.57c0,0,0.49-2.82-0.95-4.64c-1.44-1.82-2.93-1.12-3.3-0.65
							C157.23,128.64,156.62,129.24,156.62,129.24z"/>
						<g>
							<path class="st13" d="M175.95,116.85c0.68-0.63,1.39-1.21,2.15-1.77c0.76-0.55,1.56-1.04,2.42-1.44
								c0.85-0.4,1.74-0.83,2.68-0.9c0.93-0.08,1.87-0.01,2.73,0.36l-0.01,0.13c-0.46,0.18-0.89,0.3-1.32,0.42l-1.26,0.35
								c-0.82,0.24-1.67,0.31-2.5,0.59c-0.82,0.27-1.64,0.63-2.44,1.03c-0.81,0.39-1.59,0.86-2.38,1.33L175.95,116.85z"/>
							<path class="st13" d="M207.54,113.64c-0.77-0.41-1.58-0.7-2.42-0.88c-0.84-0.19-1.69-0.28-2.55-0.3
								c-0.87-0.02-1.72,0.16-2.58,0.15c-0.86,0-1.73,0.03-2.67-0.07l-0.03-0.12c0.81-0.59,1.73-0.9,2.66-1.08
								c0.94-0.19,1.87-0.03,2.78,0.1c0.91,0.13,1.8,0.37,2.63,0.71c0.82,0.36,1.61,0.8,2.26,1.38L207.54,113.64z"/>
							<path class="st13" d="M184.43,121.87c-0.03-1.21-0.64-2.13-1.36-2.06c-0.72,0.07-1.28,1.11-1.24,2.32
								c0.03,1.21,0.64,2.13,1.36,2.06C183.9,124.12,184.46,123.08,184.43,121.87z"/>
							<path class="st13" d="M203.5,120.35c-0.03-1.21-0.53-2.14-1.12-2.08c-0.59,0.06-1.04,1.08-1.01,2.29
								c0.03,1.21,0.53,2.14,1.12,2.08C203.09,122.58,203.54,121.55,203.5,120.35z"/>
							<path class="st24" d="M190.4,133.61c1.65,1.15,4.09,1.12,5.89-0.06c-0.21,0.93-0.62,1.84-1.53,2.17
								c-0.91,0.33-1.91,0.23-2.74-0.15C191.2,135.19,190.93,134.35,190.4,133.61z"/>
							<g>
								<path class="st28" d="M183.78,140.7c3.98,0.06,13.56-0.67,16.69-1.12c-1.23,4.04-4.46,8.02-8.97,8.03
									C187.44,147.61,184.75,144.28,183.78,140.7z"/>
								<path class="st29" d="M187.44,146.29c1.58-0.49,3.2-0.24,3.84-0.04c0,0,2.11-1.47,5.17-0.51c-1.39,1.12-3.05,1.86-4.95,1.86
									C189.93,147.61,188.57,147.11,187.44,146.29z"/>
								<path class="st0" d="M197.76,142.96c-4.03,1.26-8.44,0.89-12.23-0.47c-0.03-0.6-0.07-1.2-0.12-1.8
									c3.94-0.08,10.31-0.56,13.72-0.94C198.84,140.87,198.4,141.96,197.76,142.96z"/>
							</g>
						</g>
						<path class="st10" d="M166.87,111.84c6.5-0.28,12.95-1.71,18.95-4.21c1.14-2.64,1.18-4.99,1.35-7.86
							c1.63,3,2.6,6.35,2.77,9.76c3.78-0.25,7.59-0.45,11.37-0.69c1.06-3,1.19-6.09,1.02-9.26c1.28,2.98,1.92,6.74,2.36,9.96
							c2.28-0.81,5.18,0.37,7.57,0.8c2.96-6.59,2.76-18.52-3.49-23.52c-6.09-4.87-16.68-6.19-24.12-5.11
							c-15.84,2.29-28.29,15.44-27.31,31.83c0.56,9.35,5.25,18.19,11.97,24.7C165.32,130.25,164.52,120.45,166.87,111.84z"/>
					</g>
				</g>
			</g>
		</g>
	</g>
	<g>
		
			<ellipse transform="matrix(0.2515 -0.9678 0.9678 0.2515 90.0239 432.0168)" class="st16" cx="324.34" cy="157.8" rx="41.78" ry="41.78"/>
		<g>
			<path class="st4" d="M303.72,174.16h41.23c1.89,0,3.43-1.53,3.43-3.43v-25.86c0-1.89-1.53-3.43-3.43-3.43h-41.23
				c-1.89,0-3.43,1.53-3.43,3.43v25.86C300.3,172.63,301.83,174.16,303.72,174.16z"/>
			<path class="st2" d="M303.72,174.16h41.23c1.89,0,3.43-1.53,3.43-3.43l-24.04-15.12l-24.04,15.12
				C300.3,172.63,301.83,174.16,303.72,174.16z"/>
			<path class="st7" d="M303.72,141.45h41.23c1.89,0,3.43,1.53,3.43,3.43l-24.04,15.12l-24.04-15.12
				C300.3,142.98,301.83,141.45,303.72,141.45z"/>
		</g>
	</g>
	<g>
		
			<ellipse transform="matrix(0.9742 -0.2257 0.2257 0.9742 -33.1747 145.6905)" class="st16" cx="620.56" cy="217.93" rx="41.78" ry="41.78"/>
		<g>
			<g>
				<path class="st4" d="M632.28,209.76h-4.2c-0.38-1.66-1.03-3.21-1.91-4.6l2.97-2.97c0.41-0.41,0.41-1.06,0-1.47l-3.3-3.3
					c-0.41-0.41-1.06-0.41-1.47,0l-2.97,2.97c-1.4-0.88-2.95-1.53-4.6-1.91v-4.2c0-0.57-0.46-1.04-1.04-1.04h-4.67
					c-0.57,0-1.04,0.46-1.04,1.04v4.2c-1.66,0.38-3.21,1.03-4.6,1.91l-2.97-2.97c-0.41-0.41-1.06-0.41-1.47,0l-3.3,3.3
					c-0.41,0.41-0.41,1.06,0,1.47l2.97,2.97c-0.88,1.4-1.53,2.95-1.91,4.6h-4.2c-0.57,0-1.04,0.46-1.04,1.04v4.67
					c0,0.57,0.46,1.04,1.04,1.04h4.2c0.38,1.66,1.03,3.21,1.91,4.6l-2.97,2.97c-0.41,0.41-0.41,1.06,0,1.47l3.3,3.3
					c0.41,0.41,1.06,0.41,1.47,0l2.97-2.97c1.4,0.88,2.95,1.53,4.6,1.91v4.2c0,0.57,0.46,1.04,1.04,1.04h4.67
					c0.57,0,1.04-0.46,1.04-1.04v-4.2c1.66-0.38,3.21-1.03,4.6-1.91l2.97,2.97c0.41,0.41,1.06,0.41,1.47,0l3.3-3.3
					c0.41-0.41,0.41-1.06,0-1.47l-2.97-2.97c0.88-1.4,1.53-2.95,1.91-4.6h4.2c0.57,0,1.04-0.46,1.04-1.04v-4.67
					C633.32,210.22,632.85,209.76,632.28,209.76z M613.42,219.58c-3.56,0-6.45-2.89-6.45-6.45c0-3.56,2.89-6.45,6.45-6.45
					c3.56,0,6.45,2.89,6.45,6.45C619.86,216.69,616.98,219.58,613.42,219.58z"/>
				<path class="st7" d="M613.42,204.16c-4.96,0-8.97,4.02-8.97,8.97c0,4.96,4.02,8.97,8.97,8.97c4.96,0,8.97-4.02,8.97-8.97
					C622.39,208.18,618.37,204.16,613.42,204.16z M613.42,218.61c-3.03,0-5.48-2.45-5.48-5.48s2.45-5.48,5.48-5.48
					c3.03,0,5.48,2.45,5.48,5.48S616.44,218.61,613.42,218.61z"/>
			</g>
			<g>
				<path class="st4" d="M650.22,228.16h-2.15c-0.19-0.85-0.53-1.64-0.98-2.35l1.52-1.52c0.21-0.21,0.21-0.54,0-0.75l-1.69-1.69
					c-0.21-0.21-0.54-0.21-0.75,0l-1.52,1.52c-0.71-0.45-1.51-0.78-2.35-0.98v-2.15c0-0.29-0.24-0.53-0.53-0.53h-2.39
					c-0.29,0-0.53,0.24-0.53,0.53v2.15c-0.85,0.19-1.64,0.53-2.35,0.98l-1.52-1.52c-0.21-0.21-0.54-0.21-0.75,0l-1.69,1.69
					c-0.21,0.21-0.21,0.54,0,0.75l1.52,1.52c-0.45,0.71-0.78,1.51-0.98,2.35h-2.15c-0.29,0-0.53,0.24-0.53,0.53v2.39
					c0,0.29,0.24,0.53,0.53,0.53h2.15c0.19,0.85,0.53,1.64,0.98,2.35l-1.52,1.52c-0.21,0.21-0.21,0.54,0,0.75l1.69,1.69
					c0.21,0.21,0.54,0.21,0.75,0l1.52-1.52c0.71,0.45,1.51,0.78,2.35,0.98v2.15c0,0.29,0.24,0.53,0.53,0.53h2.39
					c0.29,0,0.53-0.24,0.53-0.53v-2.15c0.85-0.19,1.64-0.53,2.35-0.98l1.52,1.52c0.21,0.21,0.54,0.21,0.75,0l1.69-1.69
					c0.21-0.21,0.21-0.54,0-0.75l-1.52-1.52c0.45-0.71,0.78-1.51,0.98-2.35h2.15c0.29,0,0.53-0.24,0.53-0.53v-2.39
					C650.75,228.4,650.52,228.16,650.22,228.16z M640.59,233.18c-1.82,0-3.29-1.47-3.29-3.29c0-1.82,1.47-3.29,3.29-3.29
					s3.29,1.47,3.29,3.29C643.88,231.7,642.41,233.18,640.59,233.18z"/>
				<path class="st7" d="M640.59,225.3c-2.53,0-4.58,2.05-4.58,4.58c0,2.53,2.05,4.58,4.58,4.58c2.53,0,4.58-2.05,4.58-4.58
					C645.17,227.35,643.12,225.3,640.59,225.3z M640.59,232.68c-1.55,0-2.8-1.25-2.8-2.8c0-1.55,1.25-2.8,2.8-2.8
					c1.55,0,2.8,1.25,2.8,2.8C643.39,231.43,642.13,232.68,640.59,232.68z"/>
			</g>
		</g>
	</g>
	<g>
		
			<ellipse transform="matrix(0.9278 -0.3731 0.3731 0.9278 -5.9536 168.4005)" class="st16" cx="432.06" cy="99.58" rx="41.78" ry="41.78"/>
		<g>
			<path class="st0" d="M411.33,121.05h41.47c1.82,0,3.3-1.48,3.3-3.3v-34.5c0-1.82-1.48-3.3-3.3-3.3h-41.47
				c-1.82,0-3.3,1.48-3.3,3.3v34.5C408.02,119.57,409.5,121.05,411.33,121.05z"/>
			<path class="st7" d="M408.02,88.55h48.08v-5.3c0-1.82-1.48-3.3-3.3-3.3h-41.47c-1.82,0-3.3,1.48-3.3,3.3V88.55z"/>
			<g>
				<g>
					<g>
						<g>
							<path class="st0" d="M444.62,81.78L444.62,81.78c0.54,0,0.98-0.44,0.98-0.98v-1.72c0-0.54-0.44-0.97-0.98-0.97l0,0
								c-0.54,0-0.98,0.44-0.98,0.97v1.72C443.64,81.34,444.08,81.78,444.62,81.78z"/>
							<path class="st0" d="M447.41,81.78L447.41,81.78c0.54,0,0.98-0.44,0.98-0.98v-1.72c0-0.54-0.44-0.97-0.98-0.97l0,0
								c-0.54,0-0.98,0.44-0.98,0.97v1.72C446.43,81.34,446.87,81.78,447.41,81.78z"/>
						</g>
					</g>
					<g>
						<g>
							<path class="st0" d="M416.72,81.78L416.72,81.78c0.54,0,0.98-0.44,0.98-0.98v-1.72c0-0.54-0.44-0.97-0.98-0.97l0,0
								c-0.54,0-0.98,0.44-0.98,0.97v1.72C415.75,81.34,416.18,81.78,416.72,81.78z"/>
							<path class="st0" d="M419.51,81.78L419.51,81.78c0.54,0,0.97-0.44,0.97-0.98v-1.72c0-0.54-0.44-0.97-0.97-0.97l0,0
								c-0.54,0-0.98,0.44-0.98,0.97v1.72C418.53,81.34,418.97,81.78,419.51,81.78z"/>
						</g>
					</g>
				</g>
			</g>
			<g>
				<g>
					<g>
						<path class="st4" d="M435.1,97.83h2.58c0.44,0,0.79-0.35,0.79-0.79v-2.58c0-0.44-0.36-0.79-0.79-0.79h-2.58
							c-0.44,0-0.79,0.35-0.79,0.79v2.58C434.31,97.47,434.66,97.83,435.1,97.83z"/>
					</g>
					<g>
						<path class="st4" d="M425.19,97.83h2.58c0.44,0,0.79-0.35,0.79-0.79v-2.58c0-0.44-0.36-0.79-0.79-0.79h-2.58
							c-0.44,0-0.79,0.35-0.79,0.79v2.58C424.39,97.47,424.75,97.83,425.19,97.83z"/>
					</g>
					<g>
						<path class="st4" d="M415.28,97.83h2.58c0.44,0,0.79-0.35,0.79-0.79v-2.58c0-0.44-0.35-0.79-0.79-0.79h-2.58
							c-0.44,0-0.79,0.35-0.79,0.79v2.58C414.48,97.47,414.84,97.83,415.28,97.83z"/>
					</g>
					<g>
						<path class="st4" d="M445.01,106.36h2.58c0.44,0,0.79-0.35,0.79-0.79v-2.58c0-0.44-0.35-0.79-0.79-0.79h-2.58
							c-0.44,0-0.79,0.35-0.79,0.79v2.58C444.22,106.01,444.57,106.36,445.01,106.36z"/>
					</g>
					<g>
						<path class="st4" d="M435.1,106.36h2.58c0.44,0,0.79-0.35,0.79-0.79v-2.58c0-0.44-0.36-0.79-0.79-0.79h-2.58
							c-0.44,0-0.79,0.35-0.79,0.79v2.58C434.31,106.01,434.66,106.36,435.1,106.36z"/>
					</g>
					<g>
						<path class="st4" d="M425.19,106.36h2.58c0.44,0,0.79-0.35,0.79-0.79v-2.58c0-0.44-0.36-0.79-0.79-0.79h-2.58
							c-0.44,0-0.79,0.35-0.79,0.79v2.58C424.39,106.01,424.75,106.36,425.19,106.36z"/>
					</g>
					<g>
						<path class="st4" d="M415.28,106.36h2.58c0.44,0,0.79-0.35,0.79-0.79v-2.58c0-0.44-0.35-0.79-0.79-0.79h-2.58
							c-0.44,0-0.79,0.35-0.79,0.79v2.58C414.48,106.01,414.84,106.36,415.28,106.36z"/>
					</g>
					<g>
						<path class="st4" d="M445.01,114.89h2.58c0.44,0,0.79-0.35,0.79-0.79v-2.58c0-0.44-0.35-0.79-0.79-0.79h-2.58
							c-0.44,0-0.79,0.35-0.79,0.79v2.58C444.22,114.54,444.57,114.89,445.01,114.89z"/>
					</g>
					<g>
						<path class="st4" d="M435.1,114.89h2.58c0.44,0,0.79-0.35,0.79-0.79v-2.58c0-0.44-0.36-0.79-0.79-0.79h-2.58
							c-0.44,0-0.79,0.35-0.79,0.79v2.58C434.31,114.54,434.66,114.89,435.1,114.89z"/>
					</g>
					<g>
						<path class="st4" d="M425.19,114.89h2.58c0.44,0,0.79-0.35,0.79-0.79v-2.58c0-0.44-0.36-0.79-0.79-0.79h-2.58
							c-0.44,0-0.79,0.35-0.79,0.79v2.58C424.39,114.54,424.75,114.89,425.19,114.89z"/>
					</g>
				</g>
			</g>
		</g>
	</g>
	<g>
		
			<ellipse transform="matrix(0.7071 -0.7071 0.7071 0.7071 75.9841 425.5487)" class="st16" cx="551.67" cy="121.05" rx="41.78" ry="41.78"/>
		<g>
			
				<ellipse transform="matrix(0.7071 -0.7071 0.7071 0.7071 75.9841 425.5487)" class="st0" cx="551.67" cy="121.05" rx="28.62" ry="28.62"/>
			<path class="st7" d="M551.67,92.44c-15.81,0-28.62,12.81-28.62,28.62c0,15.81,12.81,28.62,28.62,28.62
				c15.81,0,28.62-12.81,28.62-28.62C580.29,105.25,567.48,92.44,551.67,92.44z M554.07,145.44v-3.91c0-0.73-0.59-1.32-1.32-1.32
				h-2.17c-0.73,0-1.32,0.59-1.32,1.32v3.91c-11.61-1.13-20.85-10.37-21.98-21.98h3.91c0.73,0,1.32-0.59,1.32-1.32v-2.17
				c0-0.73-0.59-1.32-1.32-1.32h-3.91c1.13-11.61,10.37-20.85,21.98-21.98v3.91c0,0.73,0.59,1.32,1.32,1.32h2.17
				c0.73,0,1.32-0.59,1.32-1.32v-3.91c11.61,1.13,20.85,10.37,21.98,21.98h-3.91c-0.73,0-1.32,0.59-1.32,1.32v2.17
				c0,0.73,0.59,1.32,1.32,1.32h3.91C574.93,135.07,565.69,144.31,554.07,145.44z"/>
			<g>
				<text transform="matrix(1 0 0 1 534.0563 127.8743)" class="st30 st31 st32">24/7</text>
			</g>
		</g>
	</g>
</g>
</svg>
